<?xml version="1.0" standalone="no"?>
<!DOCTYPE svg PUBLIC "-//W3C//DTD SVG 1.1//EN"
"http://www.w3.org/Graphics/SVG/1.1/DTD/svg11.dtd">

<svg width="803" height="535" view_box="0 0 803 535"
xmlns="http://www.w3.org/2000/svg"
xmlns:link="http://www.w3.org/1999/xlink">\n\n<desc>Généré par Mocodo 2.3.7 le Fri, 05 Feb 2021 06:11:16</desc>

<rect id="frame" x="0" y="0" width="803" height="535" fill="#f7f7f7" stroke="none" stroke-width="0"/>

<!-- Association BELONGS TO -->
<line x1="552" y1="35" x2="417" y2="35" stroke="#4393c3" stroke-width="1"/>
<text x="474" y="52.0" fill="#b2182b" font-family="Verdana" font-size="12">1,N</text>
<line x1="417" y1="202" x2="417" y2="35" stroke="#4393c3" stroke-width="1"/>
<text x="422.0" y="78" fill="#b2182b" font-family="Verdana" font-size="12">0,1</text>
<g id="association-BELONGS TO">
	<path d="M 455 9 a 14 14 90 0 1 14 14 V 35 h -104 V 23 a 14 14 90 0 1 14 -14" fill="#92c5de" stroke="#92c5de" stroke-width="0"/>
	<path d="M 469 35.0 v 12 a 14 14 90 0 1 -14 14 H 379 a 14 14 90 0 1 -14 -14 V 35.0 H 104" fill="#d1e5f0" stroke="#d1e5f0" stroke-width="0"/>
	<rect x="365" y="9" width="104" height="52" fill="none" rx="14" stroke="#4393c3" stroke-width="1.5"/>
	<line x1="365" y1="35" x2="469" y2="35" stroke="#4393c3" stroke-width="1"/>
	<text x="372" y="27.6" fill="#000000" font-family="Georgia" font-size="14">BELONGS TO</text>
</g>

<!-- Association GIVE -->
<line x1="706" y1="473" x2="552" y2="473" stroke="#4393c3" stroke-width="1"/>
<text x="645" y="490.0" fill="#b2182b" font-family="Verdana" font-size="12">1,1</text>
<line x1="417" y1="473" x2="552" y2="473" stroke="#4393c3" stroke-width="1"/>
<text x="457" y="490.0" fill="#b2182b" font-family="Verdana" font-size="12">0,N</text>
<g id="association-GIVE">
	<path d="M 563 447 a 14 14 90 0 1 14 14 V 473 h -50 V 461 a 14 14 90 0 1 14 -14" fill="#92c5de" stroke="#92c5de" stroke-width="0"/>
	<path d="M 577 473.0 v 12 a 14 14 90 0 1 -14 14 H 541 a 14 14 90 0 1 -14 -14 V 473.0 H 50" fill="#d1e5f0" stroke="#d1e5f0" stroke-width="0"/>
	<rect x="527" y="447" width="50" height="52" fill="none" rx="14" stroke="#4393c3" stroke-width="1.5"/>
	<line x1="527" y1="473" x2="577" y2="473" stroke="#4393c3" stroke-width="1"/>
	<text x="534" y="465.6" fill="#000000" font-family="Georgia" font-size="14">GIVE</text>
</g>

<!-- Association DF -->
<line x1="98" y1="35" x2="281" y2="35" stroke="#4393c3" stroke-width="1"/>
<text x="133" y="52.0" fill="#b2182b" font-family="Verdana" font-size="12">1,N</text>
<line x1="417" y1="202" x2="281" y2="35" stroke="#4393c3" stroke-width="1"/>
<text x="348" y="161.373250209" fill="#b2182b" font-family="Verdana" font-size="12">1,N</text>
<g id="association-DF">
	<circle cx="281" cy="35" r="17" stroke="#4393c3" stroke-width="1.5" fill="#92c5de"/>
	<text x="271" y="39.0" fill="#000000" font-family="Georgia" font-size="14">DF</text>
</g>

<!-- Association DIRECTED BY -->
<line x1="706" y1="369" x2="552" y2="369" stroke="#4393c3" stroke-width="1"/>
<text x="637" y="386.0" fill="#b2182b" font-family="Verdana" font-size="12">1,N</text>
<line x1="417" y1="202" x2="552" y2="369" stroke="#4393c3" stroke-width="1"/>
<text x="464" y="251.972861772" fill="#b2182b" font-family="Verdana" font-size="12">1,1</text>
<g id="association-DIRECTED BY">
	<path d="M 592 343 a 14 14 90 0 1 14 14 V 369 h -108 V 357 a 14 14 90 0 1 14 -14" fill="#92c5de" stroke="#92c5de" stroke-width="0"/>
	<path d="M 606 369.0 v 12 a 14 14 90 0 1 -14 14 H 512 a 14 14 90 0 1 -14 -14 V 369.0 H 108" fill="#d1e5f0" stroke="#d1e5f0" stroke-width="0"/>
	<rect x="498" y="343" width="108" height="52" fill="none" rx="14" stroke="#4393c3" stroke-width="1.5"/>
	<line x1="498" y1="369" x2="606" y2="369" stroke="#4393c3" stroke-width="1"/>
	<text x="505" y="361.6" fill="#000000" font-family="Georgia" font-size="14">DIRECTED BY</text>
</g>

<!-- Association PRODUCTED BY -->
<line x1="98" y1="202" x2="281" y2="202" stroke="#4393c3" stroke-width="1"/>
<text x="192" y="219.0" fill="#b2182b" font-family="Verdana" font-size="12">1,N</text>
<line x1="417" y1="202" x2="281" y2="202" stroke="#4393c3" stroke-width="1"/>
<text x="348" y="219.0" fill="#b2182b" font-family="Verdana" font-size="12">1,N</text>
<g id="association-PRODUCTED BY">
	<path d="M 329 176 a 14 14 90 0 1 14 14 V 202 h -124 V 190 a 14 14 90 0 1 14 -14" fill="#92c5de" stroke="#92c5de" stroke-width="0"/>
	<path d="M 343 202.0 v 12 a 14 14 90 0 1 -14 14 H 233 a 14 14 90 0 1 -14 -14 V 202.0 H 124" fill="#d1e5f0" stroke="#d1e5f0" stroke-width="0"/>
	<rect x="219" y="176" width="124" height="52" fill="none" rx="14" stroke="#4393c3" stroke-width="1.5"/>
	<line x1="219" y1="202" x2="343" y2="202" stroke="#4393c3" stroke-width="1"/>
	<text x="226" y="194.6" fill="#000000" font-family="Georgia" font-size="14">PRODUCTED BY</text>
</g>

<!-- Association SEE -->
<line x1="417" y1="202" x2="417" y2="369" stroke="#4393c3" stroke-width="1"/>
<text x="422.0" y="335" fill="#b2182b" font-family="Verdana" font-size="12">0,N</text>
<line x1="417" y1="473" x2="417" y2="369" stroke="#4393c3" stroke-width="1"/>
<text x="422.0" y="412" fill="#b2182b" font-family="Verdana" font-size="12">0,N</text>
<g id="association-SEE">
	<path d="M 424 343 a 14 14 90 0 1 14 14 V 369 h -42 V 357 a 14 14 90 0 1 14 -14" fill="#92c5de" stroke="#92c5de" stroke-width="0"/>
	<path d="M 438 369.0 v 12 a 14 14 90 0 1 -14 14 H 410 a 14 14 90 0 1 -14 -14 V 369.0 H 42" fill="#d1e5f0" stroke="#d1e5f0" stroke-width="0"/>
	<rect x="396" y="343" width="42" height="52" fill="none" rx="14" stroke="#4393c3" stroke-width="1.5"/>
	<line x1="396" y1="369" x2="438" y2="369" stroke="#4393c3" stroke-width="1"/>
	<text x="403" y="361.6" fill="#000000" font-family="Georgia" font-size="14">SEE</text>
</g>

<!-- Association STORED -->
<line x1="98" y1="369" x2="281" y2="369" stroke="#4393c3" stroke-width="1"/>
<text x="141" y="386.0" fill="#b2182b" font-family="Verdana" font-size="12">1,N</text>
<line x1="417" y1="202" x2="281" y2="369" stroke="#4393c3" stroke-width="1"/>
<text x="349" y="251.626749791" fill="#b2182b" font-family="Verdana" font-size="12">1,1</text>
<g id="association-STORED">
	<path d="M 303 343 a 14 14 90 0 1 14 14 V 369 h -72 V 357 a 14 14 90 0 1 14 -14" fill="#92c5de" stroke="#92c5de" stroke-width="0"/>
	<path d="M 317 369.0 v 12 a 14 14 90 0 1 -14 14 H 259 a 14 14 90 0 1 -14 -14 V 369.0 H 72" fill="#d1e5f0" stroke="#d1e5f0" stroke-width="0"/>
	<rect x="245" y="343" width="72" height="52" fill="none" rx="14" stroke="#4393c3" stroke-width="1.5"/>
	<line x1="245" y1="369" x2="317" y2="369" stroke="#4393c3" stroke-width="1"/>
	<text x="252" y="361.6" fill="#000000" font-family="Georgia" font-size="14">STORED</text>
</g>

<!-- Association PARTICIPATE -->
<line x1="98" y1="473" x2="281" y2="473" stroke="#4393c3" stroke-width="1"/>
<text x="138" y="490.0" fill="#b2182b" font-family="Verdana" font-size="12">1,1</text>
<line x1="417" y1="473" x2="281" y2="473" stroke="#4393c3" stroke-width="1"/>
<text x="355" y="490.0" fill="#b2182b" font-family="Verdana" font-size="12">0,N</text>
<g id="association-PARTICIPATE">
	<path d="M 321 447 a 14 14 90 0 1 14 14 V 473 h -108 V 461 a 14 14 90 0 1 14 -14" fill="#92c5de" stroke="#92c5de" stroke-width="0"/>
	<path d="M 335 473.0 v 12 a 14 14 90 0 1 -14 14 H 241 a 14 14 90 0 1 -14 -14 V 473.0 H 108" fill="#d1e5f0" stroke="#d1e5f0" stroke-width="0"/>
	<rect x="227" y="447" width="108" height="52" fill="none" rx="14" stroke="#4393c3" stroke-width="1.5"/>
	<line x1="227" y1="473" x2="335" y2="473" stroke="#4393c3" stroke-width="1"/>
	<text x="234" y="465.6" fill="#000000" font-family="Georgia" font-size="14">PARTICIPATE</text>
</g>

<!-- Association NATIVE -->
<line x1="706" y1="202" x2="552" y2="202" stroke="#4393c3" stroke-width="1"/>
<text x="591" y="219.0" fill="#b2182b" font-family="Verdana" font-size="12">1,N</text>
<line x1="417" y1="202" x2="552" y2="202" stroke="#4393c3" stroke-width="1"/>
<text x="464" y="194.0" fill="#b2182b" font-family="Verdana" font-size="12">1,N</text>
<g id="association-NATIVE">
	<path d="M 572 176 a 14 14 90 0 1 14 14 V 202 h -68 V 190 a 14 14 90 0 1 14 -14" fill="#92c5de" stroke="#92c5de" stroke-width="0"/>
	<path d="M 586 202.0 v 12 a 14 14 90 0 1 -14 14 H 532 a 14 14 90 0 1 -14 -14 V 202.0 H 68" fill="#d1e5f0" stroke="#d1e5f0" stroke-width="0"/>
	<rect x="518" y="176" width="68" height="52" fill="none" rx="14" stroke="#4393c3" stroke-width="1.5"/>
	<line x1="518" y1="202" x2="586" y2="202" stroke="#4393c3" stroke-width="1"/>
	<text x="525" y="194.6" fill="#000000" font-family="Georgia" font-size="14">NATIVE</text>
</g>

<!-- Entity REVIEW -->
<g id="entity-REVIEW">
	<g id="frame-REVIEW">
		<rect x="671" y="429" width="70" height="26" fill="#f4a582" stroke="#f4a582" stroke-width="0"/>
		<rect x="671" y="455.0" width="70" height="62" fill="#fddbc7" stroke="#fddbc7" stroke-width="0"/>
		<rect x="671" y="429" width="70" height="88" fill="none" stroke="#d6604d" stroke-width="1.5"/>
		<line x1="671" y1="455" x2="741" y2="455" stroke="#d6604d" stroke-width="1"/>
	</g>
	<text x="677" y="447.6" fill="#000000" font-family="Georgia" font-size="14">REVIEW</text>
	<text x="676" y="473.6" fill="#000000" font-family="Georgia" font-size="14">date</text>
	<line x1="676" y1="476.0" x2="704" y2="476.0" stroke="#000000" stroke-width="1"/>
	<text x="676" y="491.6" fill="#000000" font-family="Georgia" font-size="14">score</text>
	<text x="676" y="509.6" fill="#000000" font-family="Georgia" font-size="14">comment</text>
</g>

<!-- Entity PRODUCTION COUNTRY -->
<g id="entity-PRODUCTION COUNTRY">
	<g id="frame-PRODUCTION COUNTRY">
		<rect x="618" y="167" width="176" height="26" fill="#f4a582" stroke="#f4a582" stroke-width="0"/>
		<rect x="618" y="193.0" width="176" height="44" fill="#fddbc7" stroke="#fddbc7" stroke-width="0"/>
		<rect x="618" y="167" width="176" height="70" fill="none" stroke="#d6604d" stroke-width="1.5"/>
		<line x1="618" y1="193" x2="794" y2="193" stroke="#d6604d" stroke-width="1"/>
	</g>
	<text x="623" y="185.6" fill="#000000" font-family="Georgia" font-size="14">PRODUCTION COUNTRY</text>
	<text x="623" y="211.6" fill="#000000" font-family="Georgia" font-size="14">iso 3166</text>
	<line x1="623" y1="214.0" x2="675" y2="214.0" stroke="#000000" stroke-width="1"/>
	<text x="623" y="229.6" fill="#000000" font-family="Georgia" font-size="14">name</text>
</g>

<!-- Entity MOVIE -->
<g id="entity-MOVIE">
	<g id="frame-MOVIE">
		<rect x="375" y="86" width="84" height="26" fill="#f4a582" stroke="#f4a582" stroke-width="0"/>
		<rect x="375" y="112.0" width="84" height="206" fill="#fddbc7" stroke="#fddbc7" stroke-width="0"/>
		<rect x="375" y="86" width="84" height="232" fill="none" stroke="#d6604d" stroke-width="1.5"/>
		<line x1="375" y1="112" x2="459" y2="112" stroke="#d6604d" stroke-width="1"/>
	</g>
	<text x="393" y="104.6" fill="#000000" font-family="Georgia" font-size="14">MOVIE</text>
	<text x="380" y="130.6" fill="#000000" font-family="Georgia" font-size="14">title</text>
	<line x1="380" y1="133.0" x2="406" y2="133.0" stroke="#000000" stroke-width="1"/>
	<text x="380" y="148.6" fill="#000000" font-family="Georgia" font-size="14">tag-line</text>
	<text x="380" y="166.6" fill="#000000" font-family="Georgia" font-size="14">release date</text>
	<text x="380" y="184.6" fill="#000000" font-family="Georgia" font-size="14">revenue</text>
	<text x="380" y="202.6" fill="#000000" font-family="Georgia" font-size="14">budget</text>
	<text x="380" y="220.6" fill="#000000" font-family="Georgia" font-size="14">runtime</text>
	<text x="380" y="238.6" fill="#000000" font-family="Georgia" font-size="14">poster</text>
	<text x="380" y="256.6" fill="#000000" font-family="Georgia" font-size="14">overview</text>
	<text x="380" y="274.6" fill="#000000" font-family="Georgia" font-size="14">for adult</text>
	<text x="380" y="292.6" fill="#000000" font-family="Georgia" font-size="14">tmdb id</text>
	<text x="380" y="310.6" fill="#000000" font-family="Georgia" font-size="14">actor</text>
</g>

<!-- Entity PRODUCTION COMPANY -->
<g id="entity-PRODUCTION COMPANY">
	<g id="frame-PRODUCTION COMPANY">
		<rect x="9" y="158" width="178" height="26" fill="#f4a582" stroke="#f4a582" stroke-width="0"/>
		<rect x="9" y="184.0" width="178" height="62" fill="#fddbc7" stroke="#fddbc7" stroke-width="0"/>
		<rect x="9" y="158" width="178" height="88" fill="none" stroke="#d6604d" stroke-width="1.5"/>
		<line x1="9" y1="184" x2="187" y2="184" stroke="#d6604d" stroke-width="1"/>
	</g>
	<text x="14" y="176.6" fill="#000000" font-family="Georgia" font-size="14">PRODUCTION COMPANY</text>
	<text x="14" y="202.6" fill="#000000" font-family="Georgia" font-size="14">logo</text>
	<line x1="14" y1="205.0" x2="41" y2="205.0" stroke="#000000" stroke-width="1"/>
	<text x="14" y="220.6" fill="#000000" font-family="Georgia" font-size="14">iso 3166</text>
	<text x="14" y="238.6" fill="#000000" font-family="Georgia" font-size="14">name</text>
</g>

<!-- Entity COLLECTION -->
<g id="entity-COLLECTION">
	<g id="frame-COLLECTION">
		<rect x="501" y="9" width="102" height="26" fill="#f4a582" stroke="#f4a582" stroke-width="0"/>
		<rect x="501" y="35.0" width="102" height="26" fill="#fddbc7" stroke="#fddbc7" stroke-width="0"/>
		<rect x="501" y="9" width="102" height="52" fill="none" stroke="#d6604d" stroke-width="1.5"/>
		<line x1="501" y1="35" x2="603" y2="35" stroke="#d6604d" stroke-width="1"/>
	</g>
	<text x="506" y="27.6" fill="#000000" font-family="Georgia" font-size="14">COLLECTION</text>
	<text x="506" y="53.6" fill="#000000" font-family="Georgia" font-size="14">name</text>
	<line x1="506" y1="56.0" x2="541" y2="56.0" stroke="#000000" stroke-width="1"/>
</g>

<!-- Entity DIRECTOR -->
<g id="entity-DIRECTOR">
	<g id="frame-DIRECTOR">
		<rect x="664" y="334" width="84" height="26" fill="#f4a582" stroke="#f4a582" stroke-width="0"/>
		<rect x="664" y="360.0" width="84" height="44" fill="#fddbc7" stroke="#fddbc7" stroke-width="0"/>
		<rect x="664" y="334" width="84" height="70" fill="none" stroke="#d6604d" stroke-width="1.5"/>
		<line x1="664" y1="360" x2="748" y2="360" stroke="#d6604d" stroke-width="1"/>
	</g>
	<text x="669" y="352.6" fill="#000000" font-family="Georgia" font-size="14">DIRECTOR</text>
	<text x="669" y="378.6" fill="#000000" font-family="Georgia" font-size="14">photo</text>
	<line x1="669" y1="381.0" x2="706" y2="381.0" stroke="#000000" stroke-width="1"/>
	<text x="669" y="396.6" fill="#000000" font-family="Georgia" font-size="14">name</text>
</g>

<!-- Entity SESSION -->
<g id="entity-SESSION">
	<g id="frame-SESSION">
		<rect x="63" y="447" width="70" height="26" fill="#f4a582" stroke="#f4a582" stroke-width="0"/>
		<rect x="63" y="473.0" width="70" height="26" fill="#fddbc7" stroke="#fddbc7" stroke-width="0"/>
		<rect x="63" y="447" width="70" height="52" fill="none" stroke="#d6604d" stroke-width="1.5"/>
		<line x1="63" y1="473" x2="133" y2="473" stroke="#d6604d" stroke-width="1"/>
	</g>
	<text x="68" y="465.6" fill="#000000" font-family="Georgia" font-size="14">SESSION</text>
	<text x="68" y="491.6" fill="#000000" font-family="Georgia" font-size="14">date</text>
	<line x1="68" y1="494.0" x2="96" y2="494.0" stroke="#000000" stroke-width="1"/>
</g>

<!-- Entity USER -->
<g id="entity-USER">
	<g id="frame-USER">
		<rect x="382" y="420" width="70" height="26" fill="#f4a582" stroke="#f4a582" stroke-width="0"/>
		<rect x="382" y="446.0" width="70" height="80" fill="#fddbc7" stroke="#fddbc7" stroke-width="0"/>
		<rect x="382" y="420" width="70" height="106" fill="none" stroke="#d6604d" stroke-width="1.5"/>
		<line x1="382" y1="446" x2="452" y2="446" stroke="#d6604d" stroke-width="1"/>
	</g>
	<text x="398" y="438.6" fill="#000000" font-family="Georgia" font-size="14">USER</text>
	<text x="387" y="464.6" fill="#000000" font-family="Georgia" font-size="14">pseudo</text>
	<line x1="387" y1="467.0" x2="432" y2="467.0" stroke="#000000" stroke-width="1"/>
	<text x="387" y="482.6" fill="#000000" font-family="Georgia" font-size="14">email</text>
	<text x="387" y="500.6" fill="#000000" font-family="Georgia" font-size="14">password</text>
	<text x="387" y="518.6" fill="#000000" font-family="Georgia" font-size="14">type</text>
</g>

<!-- Entity GENRE -->
<g id="entity-GENRE">
	<g id="frame-GENRE">
		<rect x="68" y="9" width="60" height="26" fill="#f4a582" stroke="#f4a582" stroke-width="0"/>
		<rect x="68" y="35.0" width="60" height="26" fill="#fddbc7" stroke="#fddbc7" stroke-width="0"/>
		<rect x="68" y="9" width="60" height="52" fill="none" stroke="#d6604d" stroke-width="1.5"/>
		<line x1="68" y1="35" x2="128" y2="35" stroke="#d6604d" stroke-width="1"/>
	</g>
	<text x="73" y="27.6" fill="#000000" font-family="Georgia" font-size="14">GENRE</text>
	<text x="73" y="53.6" fill="#000000" font-family="Georgia" font-size="14">name</text>
	<line x1="73" y1="56.0" x2="108" y2="56.0" stroke="#000000" stroke-width="1"/>
</g>

<!-- Entity SUPPORT -->
<g id="entity-SUPPORT">
	<g id="frame-SUPPORT">
		<rect x="60" y="334" width="76" height="26" fill="#f4a582" stroke="#f4a582" stroke-width="0"/>
		<rect x="60" y="360.0" width="76" height="44" fill="#fddbc7" stroke="#fddbc7" stroke-width="0"/>
		<rect x="60" y="334" width="76" height="70" fill="none" stroke="#d6604d" stroke-width="1.5"/>
		<line x1="60" y1="360" x2="136" y2="360" stroke="#d6604d" stroke-width="1"/>
	</g>
	<text x="65" y="352.6" fill="#000000" font-family="Georgia" font-size="14">SUPPORT</text>
	<text x="65" y="378.6" fill="#000000" font-family="Georgia" font-size="14">type</text>
	<line x1="65" y1="381.0" x2="92" y2="381.0" stroke="#000000" stroke-width="1"/>
	<text x="65" y="396.6" fill="#000000" font-family="Georgia" font-size="14">name</text>
</g>
</svg>